<svg width="343" height="277" viewBox="0 0 343 277" fill="none" xmlns="http://www.w3.org/2000/svg">
<path d="M191.682 -5.69029L191.963 -4.75874L192.557 -5.5293L229.302 -53.2209L227.017 6.94186L226.98 7.91404L227.792 7.37759L278.031 -25.7969L256.336 30.3617L255.985 31.2701L256.927 31.0269L315.216 15.9617L276.461 62.0339L275.834 62.7785L276.805 62.8542L336.825 67.5313L285.212 98.5235L284.377 99.0244L285.271 99.4113L340.521 123.324L281.64 135.878L280.689 136.081L281.408 136.736L325.901 177.294L266.134 170.049L265.168 169.931L265.635 170.785L294.547 223.592L240.372 197.333L239.496 196.909L239.661 197.868L249.861 257.201L207.147 214.774L206.456 214.088L206.301 215.05L196.682 274.48L170.059 220.482L169.629 219.61L169.17 220.467L140.774 273.555L133.127 213.839L133.004 212.873L132.29 213.536L88.1962 254.526L100.354 195.563L100.55 194.61L99.6609 195.005L44.6463 219.457L75.29 167.636L75.7853 166.798L74.816 166.884L14.8408 172.148L60.6515 133.084L61.3925 132.453L60.448 132.218L2.01381 117.723L58.0262 95.6517L58.9317 95.2945L58.1141 94.7663L7.55313 62.0836L67.6967 59.3946L68.6692 59.3511L68.0675 58.5862L30.8571 11.2571L88.6162 28.2422L89.5503 28.5165L89.2295 27.597L69.4025 -29.2485L118.518 5.56971L119.311 6.13272L119.307 5.15985L119.012 -55.0456L154.16 -6.16456L154.728 -5.37478L155.04 -6.2965L174.31 -63.3332L191.682 -5.69029Z" stroke="white" stroke-opacity="0.43"/>
</svg>
