<svg width="26" height="28" viewBox="0 0 26 28" fill="none" xmlns="http://www.w3.org/2000/svg">
<path d="M10.143 4.85713H15.8573C15.8573 4.09937 15.5563 3.37265 15.0204 2.83683C14.4846 2.30101 13.7579 1.99999 13.0001 1.99999C12.2424 1.99999 11.5157 2.30101 10.9798 2.83683C10.444 3.37265 10.143 4.09937 10.143 4.85713ZM8.42871 4.85713C8.42871 3.64472 8.91034 2.48196 9.76765 1.62465C10.625 0.767337 11.7877 0.285706 13.0001 0.285706C14.2126 0.285706 15.3753 0.767337 16.2326 1.62465C17.0899 2.48196 17.5716 3.64472 17.5716 4.85713H24.7144C24.9418 4.85713 25.1598 4.94744 25.3205 5.10819C25.4813 5.26893 25.5716 5.48695 25.5716 5.71428C25.5716 5.94161 25.4813 6.15962 25.3205 6.32037C25.1598 6.48111 24.9418 6.57142 24.7144 6.57142H23.2173L21.8264 23.2606C21.7252 24.4746 21.1715 25.6064 20.275 26.4313C19.3785 27.2563 18.2047 27.7142 16.9864 27.7143H9.01385C7.79556 27.7142 6.62178 27.2563 5.72529 26.4313C4.82879 25.6064 4.27504 24.4746 4.17385 23.2606L2.783 6.57142H1.28585C1.05853 6.57142 0.840508 6.48111 0.679762 6.32037C0.519017 6.15962 0.428711 5.94161 0.428711 5.71428C0.428711 5.48695 0.519017 5.26893 0.679762 5.10819C0.840508 4.94744 1.05853 4.85713 1.28585 4.85713H8.42871ZM11.2859 11.4286C11.2859 11.2012 11.1955 10.9832 11.0348 10.8225C10.8741 10.6617 10.656 10.5714 10.4287 10.5714C10.2014 10.5714 9.98337 10.6617 9.82262 10.8225C9.66187 10.9832 9.57157 11.2012 9.57157 11.4286V21.1428C9.57157 21.3702 9.66187 21.5882 9.82262 21.7489C9.98337 21.9097 10.2014 22 10.4287 22C10.656 22 10.8741 21.9097 11.0348 21.7489C11.1955 21.5882 11.2859 21.3702 11.2859 21.1428V11.4286ZM15.5716 10.5714C15.3442 10.5714 15.1262 10.6617 14.9655 10.8225C14.8047 10.9832 14.7144 11.2012 14.7144 11.4286V21.1428C14.7144 21.3702 14.8047 21.5882 14.9655 21.7489C15.1262 21.9097 15.3442 22 15.5716 22C15.7989 22 16.0169 21.9097 16.1777 21.7489C16.3384 21.5882 16.4287 21.3702 16.4287 21.1428V11.4286C16.4287 11.2012 16.3384 10.9832 16.1777 10.8225C16.0169 10.6617 15.7989 10.5714 15.5716 10.5714Z" fill="#838384"/>
</svg>
