<svg width="34" height="34" viewBox="0 0 34 34" fill="none" xmlns="http://www.w3.org/2000/svg">
<path d="M16.9993 17C15.441 17 14.107 16.4451 12.9973 15.3354C11.8875 14.2257 11.3327 12.8917 11.3327 11.3333C11.3327 9.775 11.8875 8.44097 12.9973 7.33125C14.107 6.22153 15.441 5.66667 16.9993 5.66667C18.5577 5.66667 19.8917 6.22153 21.0014 7.33125C22.1112 8.44097 22.666 9.775 22.666 11.3333C22.666 12.8917 22.1112 14.2257 21.0014 15.3354C19.8917 16.4451 18.5577 17 16.9993 17ZM5.66602 25.5V24.3667C5.66602 23.5639 5.87285 22.8263 6.28652 22.1538C6.70018 21.4814 7.2489 20.9676 7.93268 20.6125C9.39657 19.8806 10.8841 19.3318 12.3952 18.9663C13.9063 18.6008 15.441 18.4176 16.9993 18.4167C18.5577 18.4157 20.0924 18.5989 21.6035 18.9663C23.1146 19.3337 24.6021 19.8824 26.066 20.6125C26.7507 20.9667 27.2999 21.4804 27.7136 22.1538C28.1273 22.8272 28.3336 23.5648 28.3327 24.3667V25.5C28.3327 26.2792 28.0555 26.9464 27.5011 27.5018C26.9467 28.0571 26.2795 28.3343 25.4993 28.3333H8.49935C7.72018 28.3333 7.0534 28.0561 6.49902 27.5018C5.94463 26.9474 5.66696 26.2801 5.66602 25.5Z" fill="white"/>
</svg>
