<svg width="118" height="118" viewBox="0 0 118 118" fill="none" xmlns="http://www.w3.org/2000/svg">
<path d="M59 0L65.4676 20.2419L78.1573 3.19678L77.7019 24.442L95.2385 12.4407L87.9095 32.3869L108.393 26.7301L94.9844 43.2158L116.195 44.5164L98.1598 55.7551L117.798 63.8722L97.0916 68.6461L113.031 82.7L91.8956 80.4918L102.408 98.9596L83.1349 90.0085L87.0809 110.889L71.7587 96.1649L68.7111 117.195L59 98.294L49.2889 117.195L46.2413 96.1649L30.9191 110.889L34.8651 90.0085L15.5923 98.9596L26.1044 80.4918L4.96938 82.7L20.9084 68.6461L0.201515 63.8722L19.8402 55.7551L1.80539 44.5164L23.0156 43.2158L9.60718 26.7301L30.0905 32.3869L22.7615 12.4407L40.2981 24.442L39.8427 3.19678L52.5324 20.2419L59 0Z" fill="#D5D0F8"/>
</svg>
