<svg width="110" height="110" viewBox="0 0 110 110" fill="none" xmlns="http://www.w3.org/2000/svg">
<path d="M60.5527 19.0215L60.8486 19.9492L61.4297 19.168L72.3242 4.5332L71.9336 22.7744L71.9131 23.7471L72.7168 23.1973L87.7725 12.8936L81.4805 30.0186L81.1445 30.9326L82.083 30.6729L99.6689 25.8154L88.1572 39.9707L87.543 40.7256L88.5146 40.7852L106.725 41.9014L91.2402 51.5508L90.4141 52.0654L91.3135 52.4375L108.175 59.4062L90.3965 63.5049L89.4482 63.7236L90.1787 64.3672L103.862 76.4326L85.7178 74.5371L84.749 74.4365L85.2305 75.2822L94.2549 91.1367L77.709 83.4531L76.8262 83.043L77.0068 83.999L80.3945 101.926L67.2402 89.2852L66.5381 88.6104L66.3984 89.5732L63.7812 107.629L55.4443 91.4014L55 90.5361L54.5557 91.4014L46.2178 107.629L43.6016 89.5732L43.4619 88.6104L42.7598 89.2852L29.6045 101.926L32.9932 83.999L33.1738 83.043L32.291 83.4531L15.7441 91.1367L24.7695 75.2822L25.251 74.4365L24.2822 74.5371L6.13672 76.4326L19.8213 64.3672L20.5518 63.7236L19.6035 63.5049L1.82422 59.4062L18.6865 52.4375L19.5859 52.0654L18.7598 51.5508L3.27441 41.9014L21.4854 40.7852L22.457 40.7256L21.8428 39.9707L10.3301 25.8154L27.917 30.6729L28.8555 30.9326L28.5195 30.0186L22.2266 12.8936L37.2832 23.1973L38.0869 23.7471L38.0664 22.7744L37.6748 4.5332L48.5703 19.168L49.1514 19.9492L49.4473 19.0215L55 1.64355L60.5527 19.0215Z" stroke="white" stroke-opacity="0.43"/>
</svg>
