<svg width="115" height="43" viewBox="0 0 115 43" fill="none" xmlns="http://www.w3.org/2000/svg">
<path d="M64.72 21H61.84V14.12L58 21H54.96V9.8H57.84V16.68L61.68 9.8H64.72V21ZM71.2875 21H68.4075V12.04H65.0475V9.8H74.6475V12.04H71.2875V21ZM74.1687 21V12.52H76.9687V15.16H80.0887C80.8141 15.16 81.3954 15.3787 81.8328 15.816C82.2701 16.2533 82.4888 16.8347 82.4888 17.56V18.6C82.4888 19.3253 82.2701 19.9067 81.8328 20.344C81.3954 20.7813 80.8141 21 80.0887 21H74.1687ZM79.1287 19C79.2888 19 79.4221 18.9467 79.5287 18.84C79.6354 18.7333 79.6887 18.6 79.6887 18.44V17.736C79.6887 17.576 79.6354 17.4427 79.5287 17.336C79.4221 17.2293 79.2888 17.176 79.1287 17.176H76.9687V19H79.1287ZM86.3288 21H83.5288V12.52H86.3288V21ZM57.84 34H54.96V22.8H63.68V25.04H57.84V34ZM72.8837 34H64.0037V22.8H72.8837V25.04H66.8837V27.2H71.6038V29.44H66.8837V31.76H72.8837V34ZM73.36 22.8H80.08C81.2 22.8 82.0107 23.056 82.512 23.568C83.024 24.0693 83.28 24.88 83.28 26V27.6C83.28 28.72 83.024 29.536 82.512 30.048C82.0107 30.5493 81.2 30.8 80.08 30.8H76.24V34H73.36V22.8ZM80.4 26C80.4 25.36 80.08 25.04 79.44 25.04H76.24V28.56H79.44C80.08 28.56 80.4 28.24 80.4 27.6V26ZM91.1194 25.84C91.1194 25.2 90.7994 24.88 90.1594 24.88H87.4394C86.7994 24.88 86.4794 25.2 86.4794 25.84V30.96C86.4794 31.6 86.7994 31.92 87.4394 31.92H90.1594C90.7994 31.92 91.1194 31.6 91.1194 30.96V25.84ZM93.9994 30.96C93.9994 32.08 93.7434 32.896 93.2314 33.408C92.73 33.9093 91.9194 34.16 90.7994 34.16H86.7994C85.6794 34.16 84.8634 33.9093 84.3514 33.408C83.85 32.896 83.5994 32.08 83.5994 30.96V25.84C83.5994 24.72 83.85 23.9093 84.3514 23.408C84.8634 22.896 85.6794 22.64 86.7994 22.64H90.7994C91.9194 22.64 92.73 22.896 93.2314 23.408C93.7434 23.9093 93.9994 24.72 93.9994 25.84V30.96ZM101.687 34V27.12L97.8469 34H94.8069V22.8H97.6869V29.68L101.527 22.8H104.567V34H101.687ZM98.8069 22C97.4202 22 96.7269 21.3067 96.7269 19.92V19.44H98.8069V19.84C98.8069 20 98.8602 20.1333 98.9669 20.24C99.0735 20.3467 99.2069 20.4 99.3669 20.4H99.8469C100.007 20.4 100.14 20.3467 100.247 20.24C100.354 20.1333 100.407 20 100.407 19.84V19.44H102.487V19.92C102.487 21.3067 101.794 22 100.407 22H98.8069Z" fill="white"/>
<path d="M0.790357 20.6663C2.16267 22.974 6.06766 20.7449 7.18739 23.1851C7.86135 24.6539 7.76098 25.8124 7.18739 27.3232C6.49559 29.1453 5.30824 29.4422 3.58906 30.7816C2.45349 31.6663 1.83033 32.1258 1.70991 33.5603C1.62208 34.6065 1.53711 35.2325 2.12974 36.0991C2.58468 36.7644 2.91138 37.1222 3.58906 37.5585C4.79152 38.3326 5.76019 38.329 7.18739 38.2381C8.25693 38.17 9.03277 38.2563 9.84615 37.5585C10.5882 36.9218 10.9343 36.2794 11.2655 35.3595C11.8052 33.8602 12.4122 33.2029 13.8443 33.0406C15.1899 32.888 15.9715 33.5516 17.0428 34.3799C18.6063 35.5889 19.5816 38.7579 19.5816 38.7579C19.5816 38.7579 20.6392 41.0678 21.9805 41.6965C23.2953 42.3129 24.3475 42.2281 25.6988 41.6965C27.3766 41.0365 28.0121 39.8799 28.7574 38.2381C29.3898 36.845 28.972 36.0774 29.437 34.6198C29.9104 33.1361 30.1101 32.618 31.4361 31.8011C32.719 31.0109 33.5078 30.7816 35.0145 30.7816C37.1458 30.7816 37.4533 31.1814 39.7722 31.4213C40.9138 31.5394 42.7352 31.7094 43.4106 30.7816C43.9022 30.1062 43.6105 28.6626 43.4106 28.3028C43.2107 27.9429 41.9286 26.4682 40.4719 25.8439C38.3729 24.9443 37.1535 24.9243 35.1544 23.8448C34.0221 23.2334 33.3805 22.7107 32.7555 21.5859C32.2557 20.6863 32.0271 19.7409 32.4357 18.7272C32.9754 17.3878 33.6714 16.9593 35.0145 16.5482C35.7162 16.3334 36.2398 16.3216 36.8936 15.9885C37.7997 15.5267 38.2799 14.5726 37.9531 13.6096C37.566 12.4686 37.0883 12.4068 36.2739 12.2502C34.7146 11.9503 33.3952 11.9503 31.716 12.4301C30.2147 12.8591 28.5778 13.32 27.1581 12.67C25.6813 11.9938 25.3352 10.8642 24.4994 9.47149C23.5002 7.80664 23.5478 6.58839 22.7602 4.81366C21.9017 2.87942 22.3473 0.223124 20.2413 0.0158818C18.8264 -0.123361 17.9607 0.669261 17.0428 1.75507C15.8102 3.21312 15.4485 3.91498 15.2436 5.81319C14.9873 8.1883 17.9243 11.1238 16.1033 12.67C15.3749 13.2884 14.7908 13.7401 13.8443 13.6096C13.1267 13.5106 12.8927 12.9943 12.245 12.67C9.86527 11.4784 8.1676 10.5553 5.58813 11.2107C3.29066 11.7944 1.80418 12.7862 0.790357 14.929C-0.167914 16.9543 -0.354854 18.7405 0.790357 20.6663Z" fill="white"/>
<path d="M38.3329 16.968C37.4936 16.9307 37.0187 17.5406 36.6337 18.2874C35.7731 19.9567 38.0469 21.5866 39.9122 21.8058C41.6941 22.0152 43.8278 21.201 43.8303 19.4069C43.8319 18.2806 43.3926 17.2029 42.2911 16.968C41.2171 16.739 40.989 18.6823 39.9122 18.4673C39.0782 18.3008 39.1825 17.0057 38.3329 16.968Z" fill="white"/>
<path d="M38.4531 10.9708C38.2833 10.1661 38.5489 9.52753 39.1727 8.99169C40.0019 8.27956 41.1585 8.2612 41.9714 8.99169C42.6946 9.64149 42.9027 10.5593 42.4712 11.4306C42.0771 12.2263 41.3797 12.5769 40.4921 12.55C39.4854 12.5195 38.661 11.9563 38.4531 10.9708Z" fill="white"/>
</svg>
