<svg width="25" height="25" viewBox="0 0 25 25" fill="none" xmlns="http://www.w3.org/2000/svg">
<path d="M23.0233 1.97674C22.6127 1.56574 22.1252 1.2397 21.5885 1.01725C21.0518 0.794796 20.4765 0.680298 19.8956 0.680298C19.3146 0.680298 18.7393 0.794796 18.2026 1.01725C17.666 1.2397 17.1784 1.56574 16.7678 1.97674L3.48377 15.2607C2.8532 15.8923 2.40335 16.6813 2.18102 17.5456L0.7129 23.2595C0.676492 23.4017 0.677796 23.5509 0.716681 23.6924C0.755567 23.8339 0.83069 23.9628 0.934633 24.0664C1.03858 24.17 1.16774 24.2447 1.30938 24.2831C1.45102 24.3216 1.60023 24.3224 1.74227 24.2855L7.45446 22.8191C8.31911 22.5975 9.10828 22.1475 9.73934 21.5163L23.0233 8.2323C23.4343 7.8217 23.7604 7.33411 23.9828 6.79743C24.2053 6.26075 24.3198 5.68548 24.3198 5.10452C24.3198 4.52356 24.2053 3.94829 23.9828 3.41161C23.7604 2.87493 23.4343 2.38734 23.0233 1.97674ZM17.9608 3.1698C18.474 2.65668 19.1699 2.36841 19.8956 2.36841C20.6212 2.36841 21.3172 2.65668 21.8303 3.1698C22.3434 3.68292 22.6317 4.37886 22.6317 5.10452C22.6317 5.83018 22.3434 6.52612 21.8303 7.03924L20.5157 8.3538L16.6463 4.48436L17.9608 3.1698ZM15.4532 5.67743L19.3227 9.54686L8.54627 20.3232C8.12861 20.7406 7.60636 21.0378 7.03428 21.1839L2.70246 22.2976L3.81621 17.9658C3.96146 17.3934 4.25884 16.871 4.67684 16.4538L15.4532 5.67743Z" fill="#4A4A4A"/>
</svg>
