<svg width="176" height="211" viewBox="0 0 176 211" fill="none" xmlns="http://www.w3.org/2000/svg">
<path d="M66.4521 42.1797L66.748 43.1064L67.3291 42.3262L92.7412 8.19043L91.8301 50.7373L91.8096 51.71L92.6123 51.1611L127.731 27.127L113.055 67.0713L112.719 67.9854L113.657 67.7256L154.678 56.3965L127.825 89.4121L127.211 90.167L128.183 90.2266L170.659 92.8311L134.542 115.339L133.716 115.854L134.615 116.225L173.944 132.48L132.477 142.041L131.528 142.26L132.258 142.903L164.177 171.047L121.853 166.625L120.884 166.524L121.365 167.37L142.417 204.354L103.821 186.429L102.938 186.019L103.119 186.975L111.021 228.79L80.3369 199.304L79.6357 198.63L79.4961 199.593L73.3916 241.708L53.9443 203.856L53.5 202.991L53.0557 203.856L33.6074 241.708L27.5039 199.593L27.3643 198.63L26.6631 199.304L-4.02246 228.79L3.88086 186.975L4.06152 186.019L3.17871 186.429L-35.418 204.354L-14.3652 167.37L-13.8838 166.524L-14.8525 166.625L-57.1777 171.047L-25.2578 142.903L-24.5283 142.26L-25.4766 142.041L-66.9453 132.48L-27.6152 116.225L-26.7158 115.854L-27.542 115.339L-63.6602 92.8311L-21.1826 90.2266L-20.2109 90.167L-20.8252 89.4121L-47.6787 56.3965L-6.65723 67.7256L-5.71875 67.9854L-6.05469 67.0713L-20.7324 27.127L14.3877 51.1611L15.1904 51.71L15.1699 50.7373L14.2578 8.19043L39.6709 42.3262L40.252 43.1064L40.5479 42.1797L53.5 1.64355L66.4521 42.1797Z" stroke="white" stroke-opacity="0.43"/>
</svg>
