<svg width="201" height="288" viewBox="0 0 201 288" fill="none" xmlns="http://www.w3.org/2000/svg">
<path d="M178.728 22.5605L179.023 23.4873L179.604 22.707L213.405 -22.6973L212.192 33.8936L212.172 34.8672L212.975 34.3174L259.686 2.35059L240.164 55.4795L239.829 56.3936L240.767 56.1338L295.327 41.0654L259.611 84.9785L258.998 85.7334L259.969 85.793L316.465 89.2568L268.427 119.193L267.602 119.708L268.501 120.08L320.812 141.7L265.655 154.417L264.707 154.636L265.438 155.279L307.893 192.714L251.597 186.832L250.629 186.73L251.11 187.576L279.11 236.769L227.774 212.926L226.893 212.516L227.073 213.472L237.583 269.09L196.771 229.871L196.069 229.196L195.93 230.159L187.811 286.177L161.944 235.83L161.5 234.965L161.056 235.83L135.188 286.177L127.07 230.159L126.931 229.196L126.229 229.871L85.416 269.09L95.9268 213.472L96.1074 212.516L95.2256 212.926L43.8887 236.769L71.8896 187.576L72.3711 186.73L71.4033 186.832L15.1064 192.714L57.5625 155.279L58.293 154.636L57.3447 154.417L2.1875 141.7L54.499 120.08L55.3984 119.708L54.5732 119.193L6.53418 89.2568L63.0312 85.793L64.002 85.7334L63.3887 84.9785L27.6719 41.0654L82.2334 56.1338L83.1709 56.3936L82.8359 55.4795L63.3135 2.35059L110.025 34.3174L110.828 34.8672L110.808 33.8936L109.594 -22.6973L143.396 22.707L143.977 23.4873L144.272 22.5605L161.5 -31.3564L178.728 22.5605Z" stroke="white" stroke-opacity="0.43"/>
</svg>
